<svg xmlns="http://www.w3.org/2000/svg" xmlns:xlink="http://www.w3.org/1999/xlink" version="1.1" x="0px" y="0px" viewBox="0 0 90 112.5" style="enable-background:new 0 0 90 90;" xml:space="preserve"><path d="M19.1357422,41.5273438c-1.9140625,0-3.4716797,1.5576172-3.4716797,3.4726563s1.5576172,3.4726563,3.4716797,3.4726563  c1.9150391,0,3.4726563-1.5576172,3.4726563-3.4726563S21.0507813,41.5273438,19.1357422,41.5273438z M19.1357422,46.4726563  c-0.8115234,0-1.4716797-0.6601563-1.4716797-1.4726563s0.6601563-1.4726563,1.4716797-1.4726563  c0.8125,0,1.4726563,0.6601563,1.4726563,1.4726563S19.9482422,46.4726563,19.1357422,46.4726563z"/><path d="M39.8574219,46.7119141v1.9521484c0,0.5527344,0.4472656,1,1,1h4.203125c0.5527344,0,1-0.4472656,1-1v-1.9521484h2.4931641  v1.9521484c0,0.5527344,0.4472656,1,1,1h2.0175781c0.2148438,0,0.4238281-0.0693359,0.5957031-0.1972656l4.9394531-3.6640625  C57.3603516,45.6142578,57.5107422,45.3164063,57.5107422,45s-0.1503906-0.6142578-0.4042969-0.8027344l-4.9394531-3.6640625  c-0.171875-0.1279297-0.3808594-0.1972656-0.5957031-0.1972656H30.6712036  c-1.6971436-3.2838135-5.1188354-5.5380859-9.0628052-5.5380859C15.9833984,34.7978516,11.40625,39.375,11.40625,45  s4.5771484,10.2021484,10.2021484,10.2021484c4.4691162,0,8.2676392-2.8936157,9.6437988-6.9021606l7.0427246-1.5880737H39.8574219z   M21.6083984,53.2021484c-4.5224609,0-8.2021484-3.6796875-8.2021484-8.2021484s3.6796875-8.2021484,8.2021484-8.2021484  S29.8105469,40.4775391,29.8105469,45S26.1308594,53.2021484,21.6083984,53.2021484z M37.9638672,44.7363281l-6.2210083,1.402771  C31.784729,45.7646484,31.8105469,45.385437,31.8105469,45c0-0.9229126-0.1342163-1.8131714-0.3650513-2.6640625h19.7957153  L54.8320313,45l-3.5908203,2.6640625h-0.6875v-1.9521484c0-0.5527344-0.4472656-1-1-1h-4.4931641c-0.5527344,0-1,0.4472656-1,1  v1.9521484h-2.203125v-1.9521484c0-0.5527344-0.4472656-1-1-1h-2.6738281  C38.109375,44.7119141,38.0361328,44.7197266,37.9638672,44.7363281z"/><path d="M66.9667969,9.8388672H44.1035156c-6.4111328,0-11.6269531,5.2158203-11.6269531,11.6269531v15.5205078  c0,0.5527344,0.4472656,1,1,1h8c0.5527344,0,1-0.4472656,1-1V21.4658203c0-0.8662109,0.7607422-1.6269531,1.6269531-1.6269531  h22.8632813c0.8662109,0,1.6269531,0.7607422,1.6269531,1.6269531v47.0683594c0,0.8662109-0.7607422,1.6269531-1.6269531,1.6269531  H44.1035156c-0.8662109,0-1.6269531-0.7607422-1.6269531-1.6269531V53.0136719c0-0.5527344-0.4472656-1-1-1h-8  c-0.5527344,0-1,0.4472656-1,1v15.5205078c0,6.4111328,5.2158203,11.6269531,11.6269531,11.6269531h22.8632813  c6.4111328,0,11.6269531-5.2158203,11.6269531-11.6269531V21.4658203  C78.59375,15.0546875,73.3779297,9.8388672,66.9667969,9.8388672z M76.59375,68.5341797  c0,5.3085938-4.3183594,9.6269531-9.6269531,9.6269531H44.1035156c-5.3085938,0-9.6269531-4.3183594-9.6269531-9.6269531V54.0136719  h6v14.5205078c0,1.9658203,1.6611328,3.6269531,3.6269531,3.6269531h22.8632813  c1.9658203,0,3.6269531-1.6611328,3.6269531-3.6269531V21.4658203c0-1.9658203-1.6611328-3.6269531-3.6269531-3.6269531H44.1035156  c-1.9658203,0-3.6269531,1.6611328-3.6269531,3.6269531v14.5205078h-6V21.4658203  c0-5.3085938,4.3183594-9.6269531,9.6269531-9.6269531h22.8632813c5.3085938,0,9.6269531,4.3183594,9.6269531,9.6269531V68.5341797z  "/></svg>