<svg xmlns="http://www.w3.org/2000/svg" xmlns:xlink="http://www.w3.org/1999/xlink" version="1.1" x="0px" y="0px" viewBox="0 0 48 60" style="enable-background:new 0 0 48 48;" xml:space="preserve"><g><path d="M43.43,5.43H4.57c-2.21,0-4,1.79-4,4s1.79,4,4,4h38.86c2.21,0,4-1.79,4-4S45.64,5.43,43.43,5.43z M43.43,12.43H4.57   c-1.65,0-3-1.35-3-3c0-1.65,1.35-3,3-3h38.86c1.65,0,3,1.35,3,3C46.43,11.08,45.08,12.43,43.43,12.43z"/><path d="M43.43,20H4.57c-2.21,0-4,1.79-4,4s1.79,4,4,4h38.86c2.21,0,4-1.79,4-4S45.64,20,43.43,20z M43.43,27H4.57   c-1.65,0-3-1.35-3-3c0-1.65,1.35-3,3-3h38.86c1.65,0,3,1.35,3,3C46.43,25.65,45.08,27,43.43,27z"/><path d="M43.43,34.57H4.57c-2.21,0-4,1.79-4,4s1.79,4,4,4h38.86c2.21,0,4-1.79,4-4S45.64,34.57,43.43,34.57z M43.43,41.57H4.57   c-1.65,0-3-1.35-3-3c0-1.65,1.35-3,3-3h38.86c1.65,0,3,1.35,3,3C46.43,40.23,45.08,41.57,43.43,41.57z"/></g></svg>