<svg xmlns="http://www.w3.org/2000/svg" xmlns:xlink="http://www.w3.org/1999/xlink" version="1.1" x="0px" y="0px" viewBox="0 0 100 125" enable-background="new 0 0 100 100" xml:space="preserve"><g><g><g><path fill="none" d="M40.348,19.188c-11.667,0-21.158,9.493-21.158,21.161c0,11.667,9.492,21.159,21.158,21.159     c11.668,0,21.161-9.492,21.161-21.159C61.509,28.681,52.016,19.188,40.348,19.188z"/><path fill="none" d="M68.757,57.979c8.233-13.249,6.273-30.212-4.765-41.25c-13.031-13.029-34.233-13.028-47.264,0     c-13.029,13.03-13.03,34.231-0.002,47.262c11.041,11.04,28.005,13,41.251,4.766c0.16-0.099,0.338-0.148,0.516-0.148     c0.253,0,0.504,0.098,0.692,0.287l23.741,23.743l9.712-9.709L68.896,59.187C68.575,58.865,68.517,58.365,68.757,57.979z      M40.348,63.465c-12.746,0-23.115-10.37-23.115-23.116c0-12.747,10.37-23.118,23.115-23.118     c12.747,0,23.118,10.371,23.118,23.118C63.466,53.096,53.095,63.465,40.348,63.465z"/><path d="M94.713,82.237L70.823,58.346c8.244-13.924,6.054-31.501-5.447-43.001c-13.794-13.793-36.238-13.792-50.031,0     C1.553,29.137,1.551,51.58,15.342,65.374c11.503,11.504,29.08,13.695,43.002,5.448l23.89,23.891     C82.425,94.904,82.676,95,82.926,95s0.501-0.096,0.692-0.287L94.713,83.62C94.897,83.437,95,83.188,95,82.928     S94.897,82.42,94.713,82.237z M82.926,92.638L59.186,68.895c-0.189-0.189-0.439-0.287-0.692-0.287     c-0.178,0-0.356,0.048-0.516,0.148c-13.246,8.235-30.21,6.275-41.251-4.766C3.698,50.959,3.699,29.758,16.728,16.728     c13.031-13.028,34.233-13.029,47.264,0C75.03,27.767,76.99,44.73,68.757,57.979c-0.24,0.386-0.182,0.887,0.14,1.208     l23.742,23.742L82.926,92.638z"/><path d="M40.348,17.231c-12.746,0-23.115,10.371-23.115,23.118c0,12.747,10.37,23.116,23.115,23.116     c12.747,0,23.118-10.37,23.118-23.116C63.466,27.602,53.095,17.231,40.348,17.231z M40.348,61.508     c-11.667,0-21.158-9.492-21.158-21.159c0-11.668,9.492-21.161,21.158-21.161c11.668,0,21.161,9.493,21.161,21.161     C61.509,52.016,52.016,61.508,40.348,61.508z"/></g></g></g></svg>