<svg xmlns="http://www.w3.org/2000/svg" xmlns:xlink="http://www.w3.org/1999/xlink" version="1.1" x="0px" y="0px" viewBox="0 0 96 120" style="enable-background:new 0 0 96 96;" xml:space="preserve"><g><path d="M48,29c12.6,0,23.5,6.2,33.5,19C71.5,60.8,60.6,67,48,67s-23.5-6.2-33.5-19C24.5,35.2,35.4,29,48,29 M48,27   c-15.5,0-27,9-36,21c9,12,20.5,21,36,21s27-9,36-21C75,36,63.5,27,48,27L48,27z"/></g><g><path d="M48,64c-8.8,0-16-7.2-16-16s7.2-16,16-16s16,7.2,16,16S56.8,64,48,64z M48,34c-7.7,0-14,6.3-14,14s6.3,14,14,14   s14-6.3,14-14S55.7,34,48,34z"/></g><path d="M39.5,45H45v-5.5c0.9-0.3,2-0.5,3-0.5c5,0,9,4,9,9s-4,9-9,9s-9-4-9-9C39,47,39.2,45.9,39.5,45z"/></svg>