<svg xmlns="http://www.w3.org/2000/svg" xmlns:xlink="http://www.w3.org/1999/xlink" version="1.1" x="0px" y="0px" viewBox="0 0 128 160" style="enable-background:new 0 0 128 128;" xml:space="preserve"><g><path d="M119.3,62.1C119.3,62.1,119.3,62.1,119.3,62.1c-3.3-4.3-27.3-29.1-56-28.8c-30,0.3-53.5,27.2-54.5,28.3   c-1.1,1.2-1.1,3-0.2,4.3c0.1,0.2,0.3,0.4,0.5,0.6l0,0c4.5,5.5,27,28,54.2,28.3c0.2,0,0.4,0,0.6,0c30.6,0,54.3-27.2,55.3-28.4   C120.2,65.2,120.2,63.4,119.3,62.1L119.3,62.1z M14,66.5c0.2-0.2,0.4-0.5,0.6-0.8c0,0,0,0,0,0C14.5,65.9,14.3,66.2,14,66.5z    M63.9,87.7c-0.2,0-0.3,0-0.5,0C41,87.4,22.2,70.1,16.3,63.9c6.2-6.3,25.1-23.4,47.1-23.6c0.2,0,0.3,0,0.5,0   c22.8,0,41.8,17.5,47.8,23.7C105.5,70.3,86.4,87.7,63.9,87.7z"/><path d="M64,41.6c-12.5,0-22.6,10.1-22.6,22.6S51.5,86.8,64,86.8s22.6-10.1,22.6-22.6S76.5,41.6,64,41.6z M64,79.8   c-8.6,0-15.6-7-15.6-15.6s7-15.6,15.6-15.6s15.6,7,15.6,15.6S72.6,79.8,64,79.8z"/><path d="M64,54.4c-5.4,0-9.8,4.4-9.8,9.8s4.4,9.8,9.8,9.8s9.8-4.4,9.8-9.8S69.4,54.4,64,54.4z M64,67.1c-1.6,0-2.8-1.3-2.8-2.8   s1.3-2.8,2.8-2.8s2.8,1.3,2.8,2.8S65.6,67.1,64,67.1z"/></g></svg>